# Floppy Bug

o Super_Asset
v 2.828444 2.743605 0.210159
v -2.972358 -2.782998 -0.537512
v 0.238554 -2.985368 -0.199872
v 0.526680 -0.438609 4.216501
v 3.161692 -0.319583 0.507972
v 1.080093 -1.116257 -3.196723
v -0.098955 0.533149 -3.711346
v -1.672252 1.946037 2.172478
v -2.309668 1.815468 -2.176338
v -2.514046 1.001596 -4.800000
v -2.115023 0.340245 -1.350238
v -2.115023 0.950913 -1.281415
v -1.514962 0.660428 -1.447577
v 1.859697 -1.378736 -4.518219
v 0.158356 -0.574216 -1.344310
v 0.240440 0.020864 -1.473899
v 0.774019 -0.309022 -1.193661
v 3.011811 1.439387 -5.921455
v 0.928051 0.868353 -1.184112
v 0.928051 1.693467 -1.123771
v 1.710501 1.261309 -0.885907
v 0.684596 -1.908735 -5.321285
v 0.065200 -1.574852 -1.914822
v 0.065200 -0.971424 -2.027807
v 0.676486 -1.262691 -1.915524
v -1.837334 -0.031222 -6.903996
v -1.477939 -0.446809 -1.274094
v -1.477940 0.446809 -1.274094
v -0.592757 -0.000000 -1.396585
v 2.887283 -0.440148 -2.571788
v 1.648854 -0.106265 0.661468
v 1.669740 0.497164 0.550429
v 2.249734 0.205896 0.773778
vt 0.115031 0.446880
vt 0.391453 0.193162
vt 0.407008 0.446880
vt 0.071328 0.213005
vt 0.388664 0.117734
vt 0.223278 0.465661
vt 0.073938 0.032874
vt 0.165889 0.420099
vt 0.402595 0.045759
vt 0.402595 0.454434
vt 0.233447 0.350825
vt 0.050757 0.172051
vt 0.315061 0.040383
vt 0.050128 0.452895
vt 0.091129 0.288007
vt 0.276131 0.303216
vt 0.276131 0.433179
vt 0.249198 0.432192
vt 0.223995 0.283967
vt 0.223995 0.441293
vt 0.199591 0.436486
vt 0.172698 0.431157
vt 0.142706 0.287571
vt 0.172698 0.283967
vt 0.461004 0.137250
vt 0.359702 0.219297
vt 0.346957 0.201723
vt 0.184109 0.360030
vt 0.268970 0.275516
vt 0.284248 0.287404
vt 0.031098 0.439989
vt 0.117542 0.347447
vt 0.134161 0.365243
vt 0.443274 0.112803
vt 0.304934 0.232200
vt 0.287953 0.208786
vt 0.081800 0.288588
vt 0.049624 0.059607
vt 0.081800 0.057248
vt 0.284104 0.211578
vt 0.413622 0.077228
vt 0.435354 0.101883
vt 0.061566 0.288588
vt 0.076631 0.425168
vt 0.049624 0.425168
vt 0.248056 0.435548
vt 0.223995 0.289649
vt 0.248056 0.283967
vt 0.100190 0.283967
vt 0.112605 0.437487
vt 0.082401 0.437487
vt 0.137984 0.370514
vt 0.249863 0.251480
vt 0.273332 0.272353
vt 0.255323 0.247521
vt 0.091071 0.366645
vt 0.076198 0.342290
vt 0.078564 0.340575
vt 0.215070 0.197899
vt 0.238621 0.224493
vt 0.384446 0.452895
vt 0.118863 0.090519
vt 0.250128 0.419531
vt 0.059233 0.364949
vt 0.416146 0.075398
vt 0.253002 0.193718
vt 0.311034 0.041421
vt 0.388664 0.461371
vt 0.195802 0.027089
vt 0.199591 0.431636
vt 0.172698 0.286079
vt 0.199591 0.283967
vt 0.047079 0.452440
vt 0.130075 0.368206
vt 0.145587 0.380997
vt 0.142706 0.283967
vt 0.142706 0.437080
vt 0.112605 0.434549
vt 0.250128 0.070092
vn -0.9724 0.1889 0.1369
vn -0.1761 0.9844 -0.0037
vn 0.1635 0.7246 0.6695
vn -0.6291 -0.1789 -0.7565
vn 0.5705 -0.7270 0.3820
vn 0.6853 -0.6886 -0.2370
vn -0.3297 -0.4879 -0.8083
vn -0.9936 -0.0127 0.1125
vn 0.4275 0.9033 -0.0355
vn 0.4317 -0.8753 -0.2177
vn -0.8794 0.0177 -0.4758
vn 0.5558 0.8270 -0.0846
vn 0.2870 -0.8806 0.3771
vn -0.9163 0.0292 -0.3995
vn 0.4439 0.8841 0.1460
vn 0.4237 -0.9025 0.0776
vn -0.9839 -0.0329 -0.1757
vn 0.4488 0.8782 -0.1655
vn 0.4485 -0.8779 0.1676
vn -0.9980 0.0000 0.0637
vn 0.4367 0.8936 -0.1038
vn 0.4382 -0.8939 -0.0940
vn 0.0021 -0.8488 -0.5288
vn 0.8666 0.0460 -0.4968
vn 0.8046 0.1436 0.5763
vn -0.1069 -0.8583 0.5019
vn 0.1033 0.8315 -0.5458
vn -0.7576 -0.1551 0.6341
vn -0.9345 -0.0329 -0.3545
vn 0.4717 0.8782 -0.0797
vn 0.4098 -0.8779 0.2476
vn 0.6862 0.2812 -0.6708
f 2/1/1 8/2/1 9/3/1
f 8/4/2 1/5/2 9/6/2
f 4/7/3 1/5/3 8/4/3
f 7/8/4 2/9/4 9/10/4
f 3/11/5 5/12/5 4/13/5
f 5/12/6 3/11/6 6/14/6
f 2/9/7 7/8/7 6/15/7
f 10/16/8 11/17/8 12/18/8
f 10/19/9 12/20/9 13/21/9
f 10/22/10 13/23/10 11/24/10
f 14/25/11 15/26/11 16/27/11
f 14/28/12 16/29/12 17/30/12
f 14/31/13 17/32/13 15/33/13
f 18/34/14 19/35/14 20/36/14
f 18/37/15 20/38/15 21/39/15
f 18/40/16 21/41/16 19/42/16
f 22/43/17 23/44/17 24/45/17
f 22/46/18 24/47/18 25/48/18
f 22/49/19 25/50/19 23/51/19
f 26/52/20 27/53/20 28/54/20
f 26/55/21 28/56/21 29/57/21
f 26/58/22 29/59/22 27/60/22
f 2/61/23 6/14/23 3/11/23
f 6/62/24 1/63/24 5/64/24
f 1/65/25 4/66/25 5/67/25
f 4/13/26 2/61/26 3/11/26
f 1/5/27 7/68/27 9/6/27
f 2/1/28 4/69/28 8/2/28
f 30/70/29 31/71/29 32/72/29
f 30/73/30 32/74/30 33/75/30
f 30/76/31 33/77/31 31/78/31
f 6/62/32 7/79/32 1/63/32
t T_TrimSheet_01.png
